<svg width="52" height="52" viewBox="0 0 52 52" fill="none" xmlns="http://www.w3.org/2000/svg">
<circle cx="26" cy="26" r="26" fill="#EAE9FC"/>
<path d="M33.7334 15.998C36.6501 18.0251 38.6626 21.248 39.0709 24.9668" stroke="#3149DA" stroke-width="2" stroke-linecap="round" stroke-linejoin="round"/>
<path d="M14.0896 25.0391C14.4688 21.3349 16.4521 18.112 19.3396 16.0703" stroke="#3149DA" stroke-width="2" stroke-linecap="round" stroke-linejoin="round"/>
<path d="M20.9438 37.5371C22.6355 38.3975 24.5605 38.8788 26.5876 38.8788C28.5418 38.8788 30.3793 38.4413 32.0272 37.6392" stroke="#3149DA" stroke-width="2" stroke-linecap="round" stroke-linejoin="round"/>
<path d="M26.5876 18.2294C28.8267 18.2294 30.6418 16.4143 30.6418 14.1753C30.6418 11.9362 28.8267 10.1211 26.5876 10.1211C24.3486 10.1211 22.5334 11.9362 22.5334 14.1753C22.5334 16.4143 24.3486 18.2294 26.5876 18.2294Z" stroke="#3149DA" stroke-width="2" stroke-linecap="round" stroke-linejoin="round"/>
<path d="M16.0437 36.0497C18.2827 36.0497 20.0978 34.2346 20.0978 31.9956C20.0978 29.7565 18.2827 27.9414 16.0437 27.9414C13.8046 27.9414 11.9895 29.7565 11.9895 31.9956C11.9895 34.2346 13.8046 36.0497 16.0437 36.0497Z" stroke="#3149DA" stroke-width="2" stroke-linecap="round" stroke-linejoin="round"/>
<path d="M36.9563 36.0497C39.1953 36.0497 41.0104 34.2346 41.0104 31.9956C41.0104 29.7565 39.1953 27.9414 36.9563 27.9414C34.7172 27.9414 32.9021 29.7565 32.9021 31.9956C32.9021 34.2346 34.7172 36.0497 36.9563 36.0497Z" stroke="#3149DA" stroke-width="2" stroke-linecap="round" stroke-linejoin="round"/>
</svg>
