<svg width="73" height="73" viewBox="0 0 73 73" fill="none" xmlns="http://www.w3.org/2000/svg">
<path fill-rule="evenodd" clip-rule="evenodd" d="M23.1526 5.02781L6.76302 33.2806C5.69684 35.1172 7.02923 37.4129 9.15932 37.4129H41.9408C44.0714 37.4129 45.4033 35.1172 44.3376 33.2806L27.9475 5.02781C27.4146 4.10953 26.4827 3.65039 25.5503 3.65039C24.6179 3.65039 23.6855 4.10953 23.1526 5.02781Z" fill="url(#paint0_linear_1746_6534)"/>
<path opacity="0.2" fill-rule="evenodd" clip-rule="evenodd" d="M44.1682 20.6903L52.6542 35.9659C53.7169 37.8785 56.4102 37.8998 57.5021 36.0048L66.2223 20.8669C66.4845 20.4113 66.6072 19.9273 66.6123 19.4546V19.3927C66.596 17.9214 65.4457 16.5762 63.8314 16.5638L46.6249 16.4262C46.6171 16.4258 46.6091 16.4258 46.6012 16.4258C44.4602 16.4258 43.1093 18.7844 44.1682 20.6903Z" fill="white"/>
<path opacity="0.4" fill-rule="evenodd" clip-rule="evenodd" d="M41.7665 67.9515L54.3543 47.0799C55.4787 45.2163 54.0736 42.8867 51.8253 42.8867H26.6496C24.4014 42.8867 22.9968 45.2163 24.1207 47.0799L36.708 67.9515C37.8323 69.8151 40.6422 69.8151 41.7665 67.9515Z" fill="white"/>
<defs>
<linearGradient id="paint0_linear_1746_6534" x1="25.5502" y1="11.7962" x2="25.5502" y2="37.4129" gradientUnits="userSpaceOnUse">
<stop stop-color="white"/>
<stop offset="1" stop-color="white" stop-opacity="0"/>
</linearGradient>
</defs>
</svg>
