<svg width="20" height="14" viewBox="0 0 20 14" fill="none" xmlns="http://www.w3.org/2000/svg">
<path fill-rule="evenodd" clip-rule="evenodd" d="M19.8701 6.49987C19.2301 5.38987 15.7101 -0.180128 9.73007 -0.000128453C4.20007 0.139872 1.00007 4.99987 0.130068 6.49987C-0.0485644 6.80927 -0.0485644 7.19047 0.130068 7.49987C0.760068 8.58987 4.13007 13.9999 10.0201 13.9999H10.2701C15.8001 13.8599 19.0101 8.99987 19.8701 7.49987C20.0487 7.19047 20.0487 6.80927 19.8701 6.49987ZM10.0001 10.4999C8.06707 10.4999 6.50007 8.93287 6.50007 6.99987C6.50007 5.06687 8.06707 3.49987 10.0001 3.49987C11.9331 3.49987 13.5001 5.06687 13.5001 6.99987C13.5001 8.93287 11.9331 10.4999 10.0001 10.4999ZM10.0001 8.49987C10.8285 8.49987 11.5001 7.8283 11.5001 6.99987C11.5001 6.17144 10.8285 5.49987 10.0001 5.49987C9.17164 5.49987 8.50007 6.17144 8.50007 6.99987C8.50007 7.8283 9.17164 8.49987 10.0001 8.49987Z" fill="#353535"/>
</svg>
