<svg width="20" height="20" viewBox="0 0 20 20" fill="none" xmlns="http://www.w3.org/2000/svg">
<g clip-path="url(#clip0_6233_24033)">
<path fill-rule="evenodd" clip-rule="evenodd" d="M13.6334 1.34503C13.436 0.663637 12.3957 0.663637 12.1983 1.34503L11.9188 2.31017C11.3161 4.38967 10.4924 6.01404 8.2546 6.57395L7.21605 6.83384C6.48267 7.01728 6.48267 7.98403 7.21605 8.16746L8.2546 8.42732C10.4924 8.98724 11.3161 10.6117 11.9188 12.6912L12.1983 13.6562C12.3957 14.3377 13.436 14.3377 13.6334 13.6562L13.9132 12.6912C14.5156 10.6117 15.3396 8.98724 17.5774 8.42732L18.616 8.16746C19.3493 7.98403 19.3493 7.01728 18.616 6.83384C17.8826 6.65041 17.5774 6.57395 17.5774 6.57395C15.3396 6.01404 14.5156 4.38967 13.9132 2.31017L13.6334 1.34503Z" fill="white"/>
<path fill-rule="evenodd" clip-rule="evenodd" d="M5.01443 11.1534C4.89598 10.7275 4.27177 10.7275 4.15333 11.1534L3.98568 11.7566C3.62403 13.0563 3.12985 14.0715 1.78713 14.4215L1.164 14.5839C0.723979 14.6986 0.723979 15.3028 1.164 15.4174L1.78713 15.5798C3.12985 15.9298 3.62403 16.945 3.98568 18.2448L4.15333 18.8479C4.27177 19.2738 4.89598 19.2738 5.01443 18.8479L5.18229 18.2448C5.54372 16.945 6.03812 15.9298 7.38084 15.5798L8.00397 15.4174C8.44398 15.3028 8.44398 14.6986 8.00397 14.5839C7.56394 14.4693 7.38084 14.4215 7.38084 14.4215C6.03812 14.0715 5.54372 13.0563 5.18229 11.7566L5.01443 11.1534Z" fill="white"/>
</g>
<defs>
<clipPath id="clip0_6233_24033">
<rect width="20" height="20" fill="white"/>
</clipPath>
</defs>
</svg>
