<svg width="72" height="72" viewBox="0 0 72 72" fill="none" xmlns="http://www.w3.org/2000/svg">
<path d="M66 36C66 19.47 52.53 6 36 6C19.47 6 6 19.47 6 36C6 44.7 9.75 52.53 15.69 58.02C15.69 58.05 15.69 58.05 15.66 58.08C15.96 58.38 16.32 58.62 16.62 58.89C16.8 59.04 16.95 59.19 17.13 59.31C17.67 59.76 18.27 60.18 18.84 60.6C19.05 60.75 19.23 60.87 19.44 61.02C20.01 61.41 20.61 61.77 21.24 62.1C21.45 62.22 21.69 62.37 21.9 62.49C22.5 62.82 23.13 63.12 23.79 63.39C24.03 63.51 24.27 63.63 24.51 63.72C25.17 63.99 25.83 64.23 26.49 64.44C26.73 64.53 26.97 64.62 27.21 64.68C27.93 64.89 28.65 65.07 29.37 65.25C29.58 65.31 29.79 65.37 30.03 65.4C30.87 65.58 31.71 65.7 32.58 65.79C32.7 65.79 32.82 65.82 32.94 65.85C33.96 65.94 34.98 66 36 66C37.02 66 38.04 65.94 39.03 65.85C39.15 65.85 39.27 65.82 39.39 65.79C40.26 65.7 41.1 65.58 41.94 65.4C42.15 65.37 42.36 65.28 42.6 65.25C43.32 65.07 44.07 64.92 44.76 64.68C45 64.59 45.24 64.5 45.48 64.44C46.14 64.2 46.83 63.99 47.46 63.72C47.7 63.63 47.94 63.51 48.18 63.39C48.81 63.12 49.44 62.82 50.07 62.49C50.31 62.37 50.52 62.22 50.73 62.1C51.33 61.74 51.93 61.41 52.53 61.02C52.74 60.9 52.92 60.75 53.13 60.6C53.73 60.18 54.3 59.76 54.84 59.31C55.02 59.16 55.17 59.01 55.35 58.89C55.68 58.62 56.01 58.35 56.31 58.08C56.31 58.05 56.31 58.05 56.28 58.02C62.25 52.53 66 44.7 66 36ZM50.82 50.91C42.69 45.45 29.37 45.45 21.18 50.91C19.86 51.78 18.78 52.8 17.88 53.91C13.32 49.29 10.5 42.96 10.5 36C10.5 21.93 21.93 10.5 36 10.5C50.07 10.5 61.5 21.93 61.5 36C61.5 42.96 58.68 49.29 54.12 53.91C53.25 52.8 52.14 51.78 50.82 50.91Z" fill="black"/>
<path d="M36 20.79C29.79 20.79 24.75 25.83 24.75 32.04C24.75 38.13 29.52 43.08 35.85 43.26C35.94 43.26 36.06 43.26 36.12 43.26C36.18 43.26 36.27 43.26 36.33 43.26C36.36 43.26 36.39 43.26 36.39 43.26C42.45 43.05 47.22 38.13 47.25 32.04C47.25 25.83 42.21 20.79 36 20.79Z" fill="black"/>
</svg>
