<svg width="24" height="24" viewBox="0 0 24 24" fill="none" xmlns="http://www.w3.org/2000/svg">
<g clip-path="url(#clip0_63_11)">
<path d="M18.0008 8.49979C18.0008 9.16283 17.7374 9.79871 17.2685 10.2676C16.7997 10.7364 16.1638 10.9998 15.5008 10.9998C14.8377 10.9998 14.2018 10.7364 13.733 10.2676C13.2641 9.79871 13.0008 9.16283 13.0008 8.49979C13.0008 7.83674 13.2641 7.20086 13.733 6.73202C14.2018 6.26318 14.8377 5.99979 15.5008 5.99979C16.1638 5.99979 16.7997 6.26318 17.2685 6.73202C17.7374 7.20086 18.0008 7.83674 18.0008 8.49979ZM17.9948 15.3658C17.9398 16.9546 17.5432 18.513 16.8318 19.9348C16.1763 21.1744 15.1921 22.2095 13.9871 22.9265C12.7821 23.6436 11.4029 24.0149 10.0008 23.9998H9.00075V18.4998C8.99628 17.5729 8.6261 16.6853 7.97069 16.0298C7.31527 15.3744 6.42763 15.0043 5.50075 14.9998H0.000750005V13.9998C-0.0143883 12.5977 0.356944 11.2185 1.07401 10.0135C1.79108 8.80847 2.82618 7.82426 4.06575 7.16879C5.48752 6.45738 7.04589 6.06071 8.63475 6.00579C10.0916 4.12402 11.9625 2.60332 14.1023 1.56171C16.242 0.520112 18.593 -0.0143612 20.9728 -0.000214605C21.3687 -0.00271682 21.7613 0.0729683 22.128 0.222501C22.4947 0.372034 22.8282 0.592474 23.1095 0.871181C23.3909 1.14989 23.6144 1.48138 23.7673 1.84665C23.9202 2.21193 23.9996 2.60379 24.0008 2.99979C24.0177 5.384 23.4846 7.74001 22.443 9.88471C21.4013 12.0294 19.8791 13.905 17.9948 15.3658ZM2.08475 12.9998H4.34675C5.08939 11.3458 5.96178 9.75313 6.95575 8.23679C6.26536 8.3974 5.59639 8.63908 4.96275 8.95679C4.20069 9.3592 3.54345 9.93448 3.04368 10.6366C2.54392 11.3386 2.2155 12.148 2.08475 12.9998ZM15.7638 17.0448C14.2474 18.0388 12.6548 18.9111 11.0008 19.6538V21.9158C11.8526 21.785 12.6619 21.4566 13.364 20.9569C14.0661 20.4571 14.6413 19.7998 15.0438 19.0378C15.3615 18.4041 15.6031 17.7352 15.7638 17.0448ZM22.0008 2.97179C21.9935 2.71145 21.8849 2.46423 21.6981 2.28271C21.5114 2.10119 21.2612 1.99968 21.0008 1.99979C15.8408 2.14679 12.3508 4.12379 8.98275 8.82178C8.0429 10.175 7.21642 11.6035 6.51175 13.0928C7.60367 13.2961 8.60843 13.8253 9.39381 14.6107C10.1792 15.3961 10.7084 16.4009 10.9118 17.4928C12.401 16.7881 13.8295 15.9616 15.1828 15.0218C19.8768 11.6498 21.8538 8.15979 22.0008 2.97179ZM6.12275 17.8788C6.68152 18.4433 6.99495 19.2055 6.99495 19.9998C6.99495 20.7941 6.68152 21.5563 6.12275 22.1208C5.21575 23.0268 2.50075 23.5858 1.37475 23.7848L-0.03125 24.0318L0.21575 22.6258C0.41575 21.4998 0.97375 18.7848 1.87975 17.8778C2.4515 17.3324 3.21133 17.0283 4.00145 17.0285C4.79157 17.0287 5.55126 17.3332 6.12275 17.8788ZM5.00075 19.9998C5.00111 19.8684 4.97539 19.7383 4.9251 19.6169C4.8748 19.4956 4.80093 19.3854 4.70775 19.2928C4.52022 19.1053 4.26591 19 4.00075 19C3.73559 19 3.48128 19.1053 3.29375 19.2928C2.91249 19.981 2.64472 20.7263 2.50075 21.4998C3.27456 21.3552 4.02008 21.0871 4.70875 20.7058C4.80163 20.6132 4.87525 20.5032 4.92537 20.382C4.97548 20.2608 5.00111 20.1309 5.00075 19.9998Z" fill="#797979"/>
</g>
<defs>
<clipPath id="clip0_63_11">
<rect width="24" height="24" fill="white"/>
</clipPath>
</defs>
</svg>
