<svg width="68" height="68" viewBox="0 0 68 68" fill="none" xmlns="http://www.w3.org/2000/svg">
<path d="M17.6136 8.75989C18.4868 5.32246 23.6084 5.32246 24.4816 8.75989L26.8844 18.2182C27.1961 19.4455 28.2 20.4037 29.4857 20.7013L39.3944 22.9948C42.9955 23.8283 42.9955 28.7171 39.3944 29.5507L29.4857 31.8442C28.2 32.1418 27.1961 33.1 26.8844 34.3272L24.4816 43.7856C23.6084 47.223 18.4868 47.223 17.6136 43.7856L15.2109 34.3272C14.8991 33.1 13.8953 32.1418 12.6096 31.8442L2.70084 29.5507C-0.900278 28.7171 -0.900281 23.8283 2.70084 22.9948L12.6096 20.7013C13.8953 20.4037 14.8991 19.4455 15.2109 18.2182L17.6136 8.75989Z" fill="url(#paint0_linear_6233_24083)"/>
<path d="M46.4582 41.7683C46.9955 39.653 50.1473 39.653 50.6847 41.7683L52.1633 47.5888C52.3551 48.3441 52.9729 48.9337 53.7641 49.1169L59.8618 50.5283C62.0778 51.0412 62.0778 54.0497 59.8618 54.5626L53.7641 55.974C52.9729 56.1572 52.3551 56.7468 52.1633 57.5021L50.6847 63.3226C50.1473 65.4379 46.9955 65.4379 46.4582 63.3226L44.9796 57.5021C44.7877 56.7468 44.17 56.1572 43.3788 55.974L37.2811 54.5626C35.065 54.0497 35.065 51.0412 37.2811 50.5283L43.3788 49.1169C44.17 48.9337 44.7877 48.3441 44.9796 47.5888L46.4582 41.7683Z" fill="url(#paint1_linear_6233_24083)"/>
<path d="M56.8989 8.38206C57.2515 6.99386 59.3199 6.99386 59.6725 8.38205L60.6429 12.2018C60.7688 12.6974 61.1742 13.0844 61.6934 13.2045L65.695 14.1308C67.1493 14.4674 67.1493 16.4417 65.695 16.7783L61.6934 17.7045C61.1742 17.8247 60.7688 18.2117 60.6429 18.7073L59.6725 22.527C59.3199 23.9152 57.2515 23.9152 56.8989 22.527L55.9286 18.7073C55.8027 18.2117 55.3973 17.8247 54.878 17.7045L50.8764 16.7783C49.4221 16.4417 49.4221 14.4674 50.8764 14.1308L54.878 13.2045C55.3973 13.0844 55.8027 12.6974 55.9286 12.2018L56.8989 8.38206Z" fill="url(#paint2_linear_6233_24083)"/>
<path fill-rule="evenodd" clip-rule="evenodd" d="M58.2857 9.05974L57.4938 12.1773C57.1772 13.4234 56.1579 14.3964 54.8524 14.6986L51.5864 15.4545L54.8524 16.2105C56.1579 16.5127 57.1772 17.4856 57.4938 18.7318L58.2857 21.8493L59.0777 18.7318C59.3942 17.4856 60.4135 16.5127 61.719 16.2105L64.985 15.4545L61.719 14.6986C60.4135 14.3964 59.3942 13.4234 59.0777 12.1773L58.2857 9.05974ZM59.8706 7.3717C59.4676 5.78519 57.1038 5.78519 56.7008 7.3717L55.5918 11.7371C55.4479 12.3035 54.9846 12.7458 54.3912 12.8831L49.818 13.9417C48.1559 14.3264 48.1559 16.5827 49.818 16.9674L54.3912 18.026C54.9846 18.1633 55.4479 18.6056 55.5918 19.172L56.7008 23.5374C57.1038 25.1239 59.4676 25.1239 59.8706 23.5374L60.9796 19.172C61.1235 18.6056 61.5868 18.1633 62.1802 18.026L66.7535 16.9674C68.4155 16.5827 68.4155 14.3264 66.7535 13.9417L62.1802 12.8831C61.5868 12.7458 61.1235 12.3035 60.9796 11.7371L59.8706 7.3717Z" fill="url(#paint3_linear_6233_24083)"/>
<path d="M19.4286 68C17.6402 68 16.1905 66.6161 16.1905 64.9091C16.1905 63.202 17.6402 61.8182 19.4286 61.8182C21.2169 61.8182 22.6667 63.202 22.6667 64.9091C22.6667 66.6161 21.2169 68 19.4286 68Z" fill="url(#paint4_linear_6233_24083)"/>
<path d="M38.8571 6.18182C37.0688 6.18182 35.619 4.79797 35.619 3.09091C35.619 1.38385 37.0688 -7.4618e-08 38.8571 0C40.6455 7.46181e-08 42.0952 1.38385 42.0952 3.09091C42.0952 4.79797 40.6455 6.18182 38.8571 6.18182Z" fill="url(#paint5_linear_6233_24083)"/>
<defs>
<linearGradient id="paint0_linear_6233_24083" x1="-14.5" y1="-6.22515e-07" x2="77.5" y2="79.5" gradientUnits="userSpaceOnUse">
<stop offset="0.29" stop-color="#5344BA"/>
<stop offset="0.42" stop-color="#6A8BFF"/>
<stop offset="0.68" stop-color="#FF41B3"/>
<stop offset="1" stop-color="#FF5D5D"/>
</linearGradient>
<linearGradient id="paint1_linear_6233_24083" x1="-14.5" y1="-6.22515e-07" x2="77.5" y2="79.5" gradientUnits="userSpaceOnUse">
<stop offset="0.29" stop-color="#5344BA"/>
<stop offset="0.42" stop-color="#6A8BFF"/>
<stop offset="0.68" stop-color="#FF41B3"/>
<stop offset="1" stop-color="#FF5D5D"/>
</linearGradient>
<linearGradient id="paint2_linear_6233_24083" x1="-14.5" y1="-6.22515e-07" x2="77.5" y2="79.5" gradientUnits="userSpaceOnUse">
<stop offset="0.29" stop-color="#5344BA"/>
<stop offset="0.42" stop-color="#6A8BFF"/>
<stop offset="0.68" stop-color="#FF41B3"/>
<stop offset="1" stop-color="#FF5D5D"/>
</linearGradient>
<linearGradient id="paint3_linear_6233_24083" x1="-14.5" y1="-6.22515e-07" x2="77.5" y2="79.5" gradientUnits="userSpaceOnUse">
<stop offset="0.29" stop-color="#5344BA"/>
<stop offset="0.42" stop-color="#6A8BFF"/>
<stop offset="0.68" stop-color="#FF41B3"/>
<stop offset="1" stop-color="#FF5D5D"/>
</linearGradient>
<linearGradient id="paint4_linear_6233_24083" x1="-14.5" y1="-6.22515e-07" x2="77.5" y2="79.5" gradientUnits="userSpaceOnUse">
<stop offset="0.29" stop-color="#5344BA"/>
<stop offset="0.42" stop-color="#6A8BFF"/>
<stop offset="0.68" stop-color="#FF41B3"/>
<stop offset="1" stop-color="#FF5D5D"/>
</linearGradient>
<linearGradient id="paint5_linear_6233_24083" x1="-14.5" y1="-6.22515e-07" x2="77.5" y2="79.5" gradientUnits="userSpaceOnUse">
<stop offset="0.29" stop-color="#5344BA"/>
<stop offset="0.42" stop-color="#6A8BFF"/>
<stop offset="0.68" stop-color="#FF41B3"/>
<stop offset="1" stop-color="#FF5D5D"/>
</linearGradient>
</defs>
</svg>
