<svg width="39" height="37" viewBox="0 0 39 37" fill="none" xmlns="http://www.w3.org/2000/svg">
<path fill-rule="evenodd" clip-rule="evenodd" d="M1.88444 8.99582C1.39915 8.81628 0.894841 8.67502 0.375134 8.57565C0.336977 8.56838 0.298738 8.56132 0.260413 8.55446C-0.0868043 8.49246 -0.0868043 7.99401 0.260413 7.93201C0.298738 7.92515 0.336977 7.91808 0.375134 7.91081C0.894841 7.81144 1.39915 7.67019 1.88444 7.49064C2.17487 7.38318 2.45849 7.26205 2.73452 7.12791C4.64612 6.19925 6.19423 4.64989 7.12219 2.73673C7.25617 2.46048 7.37725 2.17663 7.48458 1.88597C7.66398 1.40028 7.80512 0.895566 7.90441 0.375437C7.91167 0.33725 7.91873 0.29898 7.92559 0.260623C7.98754 -0.0868745 8.48559 -0.0868745 8.54753 0.260623C8.55439 0.29898 8.56145 0.33725 8.56871 0.375437C8.668 0.895566 8.80914 1.40028 8.98854 1.88597C9.09592 2.17663 9.21695 2.46048 9.35098 2.73673C10.2789 4.64989 11.827 6.19925 13.7386 7.12791C14.0147 7.26205 14.2983 7.38318 14.5887 7.49064C15.074 7.67019 15.5783 7.81144 16.098 7.91081C16.1362 7.91808 16.1744 7.92515 16.2127 7.93201C16.5599 7.99401 16.5599 8.49246 16.2127 8.55446C16.1744 8.56132 16.1362 8.56838 16.098 8.57565C15.5783 8.67502 15.074 8.81628 14.5887 8.99582C14.2983 9.10328 14.0147 9.22442 13.7386 9.35855C11.827 10.2872 10.2789 11.8366 9.35098 13.7497C9.21695 14.026 9.09592 14.3098 8.98854 14.6005C8.80914 15.0862 8.668 15.5909 8.56871 16.111C8.56145 16.1492 8.55439 16.1875 8.54753 16.2258C8.48559 16.5734 7.98754 16.5734 7.92559 16.2258C7.91873 16.1875 7.91167 16.1492 7.90441 16.111C7.80512 15.5909 7.66398 15.0862 7.48458 14.6005C7.37725 14.3098 7.25617 14.026 7.12219 13.7497C6.19423 11.8366 4.64612 10.2872 2.73452 9.35855C2.45849 9.22442 2.17487 9.10328 1.88444 8.99582ZM4.90891 8.24323C6.23434 9.11235 7.36815 10.2471 8.23656 11.5736C9.10497 10.2471 10.2388 9.11235 11.5643 8.24323C10.2388 7.37411 9.10497 6.23939 8.23656 4.91288C7.36815 6.23939 6.23434 7.37411 4.90891 8.24323ZM13.4868 21.3439C13.1474 21.2524 12.8033 21.1721 12.4548 21.1033C12.4003 21.0926 12.3458 21.0822 12.2911 21.072L12.2746 21.0689L12.2522 21.0648C12.2177 21.0585 12.1798 21.0518 12.1041 21.0382L12.0777 21.0335C11.5224 20.9284 11.5224 20.1326 12.0777 20.0274L12.1041 20.0227C12.1798 20.0091 12.2177 20.0024 12.2522 19.9961L12.2746 19.992L12.2911 19.9889C12.3458 19.9787 12.4003 19.9683 12.4547 19.9576C12.8032 19.8889 13.1474 19.8085 13.4868 19.717C13.7767 19.6388 14.0632 19.5524 14.3459 19.4581C18.9211 17.9318 22.5212 14.3287 24.0463 9.74985C24.1406 9.46683 24.2269 9.18013 24.305 8.88995C24.3965 8.55031 24.4768 8.20586 24.5454 7.85711C24.5561 7.80263 24.5665 7.74806 24.5767 7.69338L24.5798 7.67679L24.5839 7.65437C24.5901 7.62027 24.5968 7.58284 24.61 7.50876L24.6105 7.5062L24.6152 7.47973C24.7203 6.92399 25.5154 6.92399 25.6205 7.47973L25.6252 7.5062C25.6387 7.58197 25.6455 7.61986 25.6518 7.65437L25.6559 7.67679L25.659 7.69338C25.6691 7.74806 25.6796 7.80263 25.6903 7.85711C25.7589 8.20591 25.8392 8.55031 25.9306 8.88995C26.0088 9.18013 26.0951 9.46683 26.1893 9.74985C27.7144 14.3287 31.3146 17.9318 35.8897 19.4581C36.1725 19.5524 36.459 19.6388 36.7489 19.717C37.0883 19.8085 37.4325 19.8889 37.7809 19.9576C37.8354 19.9683 37.8899 19.9787 37.9445 19.9889L37.9611 19.992L37.9835 19.9961C38.018 20.0024 38.0558 20.0091 38.1315 20.0227L38.158 20.0274C38.7133 20.1326 38.7133 20.9284 38.158 21.0335L38.1315 21.0382L38.0514 21.0526L37.9835 21.0648L37.9611 21.0689L37.9445 21.072C37.8899 21.0822 37.8354 21.0926 37.7809 21.1033C37.4325 21.1721 37.0883 21.2524 36.7489 21.3439C36.459 21.4221 36.1725 21.5085 35.8897 21.6028C31.3146 23.1291 27.7144 26.7322 26.1893 31.3111C26.0951 31.5941 26.0088 31.8808 25.9306 32.171C25.8392 32.5106 25.7589 32.855 25.6903 33.2038C25.6796 33.2583 25.6691 33.3128 25.659 33.3675L25.6559 33.3841L25.6518 33.4065L25.6426 33.457L25.6258 33.5518L25.6205 33.5812C25.5154 34.1369 24.7203 34.1369 24.6152 33.5812L24.6105 33.5547C24.597 33.4791 24.5902 33.441 24.5839 33.4065L24.5798 33.3841L24.5767 33.3675C24.5665 33.3128 24.5561 33.2583 24.5454 33.2038C24.4768 32.855 24.3965 32.5106 24.305 32.171C24.2269 31.8808 24.1406 31.5941 24.0463 31.3111C22.5212 26.7322 18.9211 23.1291 14.3459 21.6028C14.0632 21.5085 13.7767 21.4221 13.4868 21.3439ZM17.121 20.5305C20.5997 22.2309 23.4188 25.0523 25.1178 28.5338C26.8169 25.0523 29.636 22.2309 33.1147 20.5305C29.636 18.8301 26.8169 16.0087 25.1178 12.5271C23.4188 16.0087 20.5997 18.8301 17.121 20.5305ZM5.82924 32.0037C6.41287 32.1153 6.96571 32.3105 7.47501 32.5766C7.70158 32.695 7.9195 32.8273 8.12765 32.9726C8.7077 33.3773 9.21204 33.8821 9.61648 34.4626C9.76161 34.6709 9.89389 34.889 10.0121 35.1157C10.278 35.6255 10.4731 36.1788 10.5845 36.7629C10.5891 36.787 10.5936 36.8112 10.5979 36.8354C10.6371 37.0549 10.9516 37.0549 10.9908 36.8354C10.9951 36.8112 10.9995 36.787 11.0041 36.7629C11.1156 36.1788 11.3107 35.6255 11.5765 35.1157C11.6948 34.889 11.8271 34.6709 11.9722 34.4626C12.3766 33.8821 12.881 33.3773 13.4611 32.9726C13.6692 32.8273 13.8871 32.695 14.1136 32.5766C14.623 32.3105 15.1758 32.1153 15.7595 32.0037C15.7836 31.9991 15.8077 31.9946 15.8319 31.9903C16.0512 31.9512 16.0512 31.6363 15.8319 31.5972C15.8077 31.5928 15.7836 31.5884 15.7595 31.5838C15.1758 31.4722 14.623 31.277 14.1136 31.0109C13.8871 30.8925 13.6692 30.7602 13.4611 30.6149C12.881 30.2102 12.3766 29.7054 11.9722 29.1249C11.8271 28.9165 11.6948 28.6984 11.5765 28.4717C11.3107 27.962 11.1156 27.4087 11.0041 26.8246C10.9995 26.8005 10.9951 26.7763 10.9908 26.7521C10.9516 26.5326 10.6371 26.5326 10.5979 26.7521C10.5936 26.7763 10.5891 26.8005 10.5845 26.8246C10.4731 27.4087 10.278 27.962 10.0121 28.4717C9.89389 28.6984 9.76161 28.9165 9.61648 29.1249C9.21204 29.7054 8.7077 30.2102 8.12765 30.6149C7.9195 30.7602 7.70158 30.8925 7.47501 31.0109C6.96571 31.277 6.41287 31.4722 5.82924 31.5838C5.80515 31.5884 5.781 31.5928 5.75675 31.5972C5.5375 31.6363 5.5375 31.9512 5.75675 31.9903C5.781 31.9946 5.80515 31.9991 5.82924 32.0037ZM10.7943 32.6453C10.5324 32.3406 10.2479 32.0559 9.94341 31.7937C10.2479 31.5316 10.5324 31.2469 10.7943 30.9421C11.0563 31.2469 11.3408 31.5316 11.6452 31.7937C11.3408 32.0559 11.0563 32.3406 10.7943 32.6453Z" fill="url(#paint0_linear_1705_6037)"/>
<defs>
<linearGradient id="paint0_linear_1705_6037" x1="19.2872" y1="0" x2="19.2872" y2="37" gradientUnits="userSpaceOnUse">
<stop stop-color="#F5C679"/>
<stop offset="0.47" stop-color="#DA3131"/>
<stop offset="0.93" stop-color="#4B6CFF"/>
</linearGradient>
</defs>
</svg>
